<?xml version="1.0"?><svg width="640" height="480" xmlns="http://www.w3.org/2000/svg" xmlns:xlink="http://www.w3.org/1999/xlink">
 <title>Red Petri Dish</title>
 <defs>
  <linearGradient id="linearGradient9357">
   <stop offset="0" id="stop9359" stop-color="#000000"/>
   <stop id="stop9365" offset="0.48946" stop-color="#ababab"/>
   <stop offset="1" id="stop9361" stop-color="#000000"/>
  </linearGradient>
  <linearGradient xlink:href="#linearGradient9357" id="linearGradient9505" x1="0.15356" y1="0.50225" x2="0.662739" y2="0.50225"/>
 </defs>
 <metadata id="metadata8787">image/svg+xml</metadata>
 <g>
  <g id="g9439">
   <path id="path8792" d="m445.654053,207.581863c0,38.737198 -79.350739,70.139938 -177.234863,70.139938c-97.884125,0 -177.234886,-31.40271 -177.234886,-70.139938c0,-38.737198 79.350761,-70.139923 177.234886,-70.139923c97.884125,0 177.234863,31.402725 177.234863,70.139923z" stroke-dashoffset="0" stroke-miterlimit="4" stroke-linejoin="round" stroke-linecap="round" stroke="#000000" fill="none" opacity="0.6"/>
   <path id="path8792-2" d="m445.654053,180.331253c0,38.737198 -79.350739,70.139908 -177.234863,70.139908c-97.884125,0 -177.234886,-31.402695 -177.234886,-70.139908c0,-38.737198 79.350761,-70.139931 177.234886,-70.139931c97.884125,0 177.234863,31.402718 177.234863,70.139931z" stroke-dashoffset="0" stroke-miterlimit="4" stroke-linejoin="round" stroke-linecap="round" stroke="#000000" fill="none" opacity="0.6"/>
   <path d="m91.201118,209.359421l0,-29.33989" id="path9326" stroke-width="1px" stroke="#000000" fill="none" opacity="0.6"/>
   <path d="m445.584595,210.41597l0,-29.828873" id="path9328" stroke-width="1px" stroke="#000000" fill="none" opacity="0.6"/>
   <path d="m240.311005,276.802002c-56.953903,-3.852997 -103.835205,-17.650024 -130.217003,-38.037003c-4.056999,-3.134995 -11.324699,-10.535004 -13.307701,-13.909988c-3.363228,-5.724014 -5.307198,-11.614014 -5.307198,-16.786011c0,-2.458496 -0.559364,-19.676605 0.156914,-20.396103c0.218193,-0.219193 4.479782,9.555099 5.641479,11.330307c3.049507,4.659393 12.013206,12.872803 18.457108,17.147797c14.528793,9.639999 35.500687,18.153 59.003204,23.916992c30.050186,7.369003 57.794189,10.674988 93.770187,10.674988c30.161011,0 53.929993,-2.518982 79.175995,-7.525986c46.201996,-9.160995 78.216003,-24.344986 91.756012,-44.211502l5.998993,-12.711594l0.312012,11.066101c1.317993,3.178391 0.083008,8.298203 -0.233002,12.421997c-1.417999,18.473007 -22.076996,36.520004 -57.210999,49.36998c-20.58902,7.530029 -45.907013,12.945007 -74.009003,16.05603c-20.243988,2.240997 -52.762024,3.000977 -73.567001,1.593994l-0.419998,0l0,0z" id="path9351" fill="url(#linearGradient9505)" opacity="0.13"/>
   <path d="m93.396263,189.279419c-3.710022,-11.798691 -0.131783,-23.305176 10.591026,-34.057678c20.995689,-21.052963 65.388977,-36.5037 121.080078,-42.141991c21.205154,-2.146019 47.644638,-2.721718 68.102188,-1.482628c47.545715,2.881485 87.132263,12.084122 115.853485,26.93187c28.187836,14.572083 40.269165,32.504898 34.351166,50.989105c-0.397552,1.242004 -0.865967,2.347656 -1.03949,2.45578c-0.17453,0.108154 -0.590576,-0.338028 -0.925079,-0.991653c-1.055023,-2.061295 -4.545898,-6.498459 -7.35025,-9.340012c-6.02951,-6.112701 -14.284485,-11.87468 -24.682434,-17.232422c-28.332336,-14.597397 -67.045197,-23.683151 -114.225342,-26.810104c-12.994812,-0.861145 -40.742447,-0.857254 -53.509369,0.007782c-40.098541,2.715897 -73.284149,9.453964 -100.171677,20.338928c-21.569725,8.731171 -37.416367,19.762268 -44.721992,31.132355c-1.067635,1.66188 -2.055756,3.031509 -2.19635,3.044174c-0.139633,0.013626 -0.660355,-1.266373 -1.15596,-2.843506l0,0l0,0z" id="path9353" fill-rule="nonzero" fill="#000000" opacity="0.07"/>
   <path d="m251.731857,249.499405c-0.694275,-0.067215 -4.666138,-0.300995 -8.828033,-0.519196c-26.556839,-1.395966 -54.464462,-5.831177 -77.577942,-12.328644c-21.16539,-5.950012 -40.759872,-14.855545 -53.335754,-24.239365c-6.049873,-4.513184 -12.820251,-11.723724 -15.717667,-16.736618l-0.992973,-1.719345l0.992973,-1.719345c1.88604,-3.262375 4.78347,-6.799454 8.678703,-10.593704c6.900291,-6.720566 13.831627,-11.382751 25.528969,-17.171051c28.266418,-13.985641 66.415863,-22.690506 112.243317,-25.609985c9.899582,-0.630264 41.373688,-0.620514 51.527283,0.015579c53.54425,3.355911 98.665771,15.321182 125.978943,33.405014c9.081146,6.01236 16.938568,13.701172 20.185028,19.750549l1.031769,1.922943l-1.031769,1.922928c-0.56723,1.057922 -2.129425,3.299423 -3.471436,4.981735c-15.085449,18.916687 -49.431854,34.290482 -95.308716,42.663162c-11.750671,2.144058 -29.367004,4.258942 -44.320587,5.319748c-7.158203,0.507538 -41.93512,1.008224 -45.582108,0.655594l0,0l0,0z" id="path9355" fill-rule="nonzero" fill="#000000" opacity="0.07"/>
   <path d="m91.59938,202.596924c0.435822,-2.566101 1.510658,-5.608261 2.59639,-8.011154" id="path9367" stroke-width="1px" stroke="#c1c1c1" fill="none"/>
   <path d="m442.635956,194.617371c1.034332,2.021255 1.935211,5.308716 2.509338,7.422455" id="path9369" stroke-width="1px" stroke="#b3b2b2" fill="none"/>
  </g>
  <g id="g9478">
   <path id="path8792-4" d="m448.338837,180.827606c0,40.08287 -80.550507,72.576447 -179.914581,72.576447c-99.364059,0 -179.914566,-32.493561 -179.914566,-72.576447c0,-40.082855 80.550507,-72.576462 179.914566,-72.576462c99.364075,0 179.914581,32.493607 179.914581,72.576462z" stroke-dashoffset="0" stroke-miterlimit="4" stroke-linejoin="round" stroke-linecap="round" stroke-width="0.975726" stroke="#000000" fill="none" opacity="0.6"/>
   <path id="path8792-4-4" d="m448.352631,194.059006c0,40.08284 -80.550476,72.576492 -179.914581,72.576492c-99.364044,0 -179.914551,-32.493622 -179.914551,-72.576492c0,-40.08287 80.550507,-72.576469 179.914551,-72.576469c99.364105,0 179.914581,32.493599 179.914581,72.576469z" stroke-dashoffset="0" stroke-miterlimit="4" stroke-linejoin="round" stroke-linecap="round" stroke-width="0.975726" stroke="#000000" fill="none" opacity="0.6"/>
   <path d="m88.500076,195.395142l0.075653,-13.942139" id="path9415" stroke-width="0.995405px" stroke="#000000" fill="none" opacity="0.6"/>
   <path d="m448.314087,195.240234l0.075653,-13.942154" id="path9415-1" stroke-width="0.995405px" stroke="#000000" fill="none" opacity="0.6"/>
   <path d="m257.881622,252.430115c-81.259705,-2.003693 -150.033607,-26.176208 -165.221405,-58.070038c-10.737976,-22.550262 5.630051,-45.217102 45.036911,-62.367905c52.970139,-23.054131 138.560532,-29.427742 209.196884,-15.576889c40.079132,7.859589 71.673676,21.664017 88.12085,38.504578c11.368713,11.639694 14.890686,23.269516 10.741516,35.47139c-2.110291,6.207626 -4.917267,10.452103 -11.022339,16.667664c-21.661591,22.0513 -68.692047,38.270386 -126.815277,43.735062c-8.609985,0.810181 -38.623016,2.148926 -42.447021,1.893982c-0.927307,-0.061218 -4.34314,-0.177826 -7.590118,-0.257843l0,0l0,0z" id="path9474" stroke-dashoffset="0" stroke-miterlimit="4" stroke-linejoin="round" stroke-linecap="round" stroke-width="0.995405" stroke="#b3b2b2" fill-rule="nonzero" fill="#000000" opacity="0.05"/>
   <path d="m259.850037,265.777557c-3.411957,-0.051392 -10.292847,-0.316193 -15.289215,-0.588867c-75.876892,-4.140717 -137.364311,-27.389496 -151.807991,-57.400177c-2.462387,-5.115936 -3.305435,-8.491943 -3.281517,-13.141479l0.018723,-3.647736l1.063927,2.622208c1.808365,4.457855 5.046074,8.956223 10.388863,14.43277c8.130264,8.333817 17.816772,14.765747 31.876785,21.167038c24.162689,11.000443 54.277985,18.561661 89.089584,22.368469c28.583023,3.125031 63.607864,3.127991 92.893326,0.008881c68.220215,-7.267792 119.956604,-30.244843 131.719055,-58.499863l1.063324,-2.552994l-0.205505,4.764191c-0.224823,5.207764 -1.389496,9.344574 -3.959106,14.066238c-5.590759,10.275223 -17.348358,20.319321 -33.336212,28.481216c-36.81192,18.789917 -90.742554,28.813263 -150.234039,27.920105l0,0z" id="path9476" stroke-dashoffset="0" stroke-miterlimit="4" stroke-linejoin="round" stroke-linecap="round" stroke-width="0.995405" stroke="#b3b2b2" fill-rule="nonzero" fill="#000000" opacity="0.05"/>
  </g>
  <ellipse fill="#ffaaaa" stroke="#000000" stroke-width="0" cx="268.360969" cy="207.528372" id="svg_1" rx="176.999973" ry="69.75" opacity="0.5"/>
  <title>Layer 1</title>
  <ellipse ry="2" id="svg_2" cy="137" cx="81" stroke-width="5" stroke="#000000" fill="#ffaaaa"/>
 </g>
</svg>