<?xml version="1.0" encoding="UTF-8" standalone="no"?>
<!-- Generator: Adobe Illustrator 18.0.0, SVG Export Plug-In . SVG Version: 6.00 Build 0)  -->

<svg
   xmlns:dc="http://purl.org/dc/elements/1.1/"
   xmlns:cc="http://creativecommons.org/ns#"
   xmlns:rdf="http://www.w3.org/1999/02/22-rdf-syntax-ns#"
   xmlns:svg="http://www.w3.org/2000/svg"
   xmlns="http://www.w3.org/2000/svg"
   xmlns:sodipodi="http://sodipodi.sourceforge.net/DTD/sodipodi-0.dtd"
   xmlns:inkscape="http://www.inkscape.org/namespaces/inkscape"
   version="1.1"
   id="Capa_1"
   x="0px"
   y="0px"
   viewBox="0 0 489.633 489.633"
   style="enable-background:new 0 0 489.633 489.633;"
   xml:space="preserve"
   inkscape:version="0.91 r13725"
   sodipodi:docname="001-pencil-with-eraser.svg"><metadata
     id="metadata47"><rdf:RDF><cc:Work
         rdf:about=""><dc:format>image/svg+xml</dc:format><dc:type
           rdf:resource="http://purl.org/dc/dcmitype/StillImage" /></cc:Work></rdf:RDF></metadata><defs
     id="defs45" /><sodipodi:namedview
     pagecolor="#ffffff"
     bordercolor="#666666"
     borderopacity="1"
     objecttolerance="10"
     gridtolerance="10"
     guidetolerance="10"
     inkscape:pageopacity="0"
     inkscape:pageshadow="2"
     inkscape:window-width="640"
     inkscape:window-height="480"
     id="namedview43"
     showgrid="false"
     inkscape:zoom="0.48199366"
     inkscape:cx="151.97557"
     inkscape:cy="224.78561"
     inkscape:window-x="0"
     inkscape:window-y="0"
     inkscape:window-maximized="0"
     inkscape:current-layer="Capa_1" /><g
     id="g3"
     transform="matrix(0,-1,1,0,1.3633899e-4,489.63314)"><path
       d="M 484.732,72.193 417.458,4.887 C 414.329,1.76 410.076,0 405.663,0 401.249,0 397,1.76 393.873,4.887 l -37.533,37.537 90.868,90.872 37.524,-37.522 c 6.512,-6.514 6.512,-17.067 0,-23.581 z"
       id="path5"
       inkscape:connector-curvature="0" /><polygon
       points="344.545,54.215 331.52,67.257 422.388,158.131 435.418,145.086 "
       id="polygon7" /><path
       d="M 294.878,103.885 38.874,359.902 c -1.824,1.826 -3.211,4.043 -4.038,6.482 L 0.879,467.646 c -2.002,6.01 -0.457,12.619 4.025,17.1 3.173,3.18 7.44,4.887 11.79,4.887 1.774,0 3.567,-0.277 5.309,-0.863 l 101.246,-33.973 c 2.456,-0.83 4.673,-2.196 6.494,-4.021 L 385.746,194.758 294.878,103.885 Z m -229.3,276.008 c 6.713,1.788 20.7,8.659 28.113,16.066 9.68,9.698 14.701,20.783 15.871,27.984 l -66.407,22.551 22.423,-66.601 z"
       id="path9"
       inkscape:connector-curvature="0" /><polygon
       points="319.73,79.046 306.668,92.094 397.541,182.964 410.598,169.918 "
       id="polygon11" /></g><g
     id="g13" /><g
     id="g15" /><g
     id="g17" /><g
     id="g19" /><g
     id="g21" /><g
     id="g23" /><g
     id="g25" /><g
     id="g27" /><g
     id="g29" /><g
     id="g31" /><g
     id="g33" /><g
     id="g35" /><g
     id="g37" /><g
     id="g39" /><g
     id="g41" /><circle
     style="fill:#000000"
     id="path3354"
     cx="18.672445"
     cy="141.08069"
     r="10.37358" /><circle
     style="fill:#000000"
     id="path3356"
     cx="16.597729"
     cy="165.97728"
     r="6.2241483" /><circle
     style="fill:#000000"
     id="path3358"
     cx="42.531681"
     cy="171.16408"
     r="5.18679" /><circle
     style="fill:#000000"
     id="path3360"
     cx="145.23012"
     cy="18.672443"
     r="8.2988644" /><circle
     style="fill:#000000"
     id="path3362"
     cx="160.79051"
     cy="42.531685"
     r="9.3362226" /><circle
     style="fill:#000000"
     id="path3364"
     cx="185.68709"
     cy="21.784519"
     r="5.18679" /></svg>