<?xml version="1.0" encoding="utf-8"?>
<!-- Svg Vector Icons : http://www.onlinewebfonts.com/icon -->
<!DOCTYPE svg PUBLIC "-//W3C//DTD SVG 1.1//EN" "http://www.w3.org/Graphics/SVG/1.1/DTD/svg11.dtd">
<svg version="1.1" xmlns="http://www.w3.org/2000/svg" xmlns:xlink="http://www.w3.org/1999/xlink" x="0px" y="0px" viewBox="0 0 1000 1000" enable-background="new 0 0 1000 1000" xml:space="preserve">
<metadata> Svg Vector Icons : http://www.onlinewebfonts.com/icon </metadata>
<g><path d="M500,10C229.8,10,10,229.8,10,500s219.8,490,490,490c270.2,0,490-219.8,490-490C990,229.8,770.2,10,500,10z M540.9,813.6c-12.9,11.5-27.8,17.2-44.8,17.2c-17.5,0-32.8-5.7-45.8-17s-19.6-27.2-19.6-47.6c0-18.1,6.3-33.3,18.9-45.6c12.6-12.3,28.1-18.5,46.5-18.5c18.1,0,33.3,6.2,45.6,18.5c12.3,12.3,18.5,27.5,18.5,45.6C560.3,786.3,553.8,802.1,540.9,813.6z M701.7,415c-9.9,18.4-21.7,34.2-35.3,47.6c-13.6,13.3-38.1,35.8-73.4,67.4c-9.8,8.9-17.6,16.7-23.5,23.5c-5.9,6.7-10.3,12.9-13.1,18.5c-2.9,5.6-5.1,11.2-6.7,16.8c-1.6,5.6-3.9,15.4-7.1,29.5c-5.5,29.8-22.5,44.8-51.2,44.8c-14.9,0-27.5-4.9-37.7-14.6c-10.2-9.8-15.3-24.3-15.3-43.5c0-24.1,3.7-45,11.2-62.6c7.5-17.6,17.4-33.1,29.7-46.5c12.3-13.3,29-29.2,49.9-47.6c18.4-16.1,31.6-28.2,39.8-36.4s15.1-17.3,20.7-27.3c5.6-10,8.4-20.9,8.4-32.7c0-23-8.5-42.3-25.6-58.1c-17.1-15.8-39.1-23.7-66.1-23.7c-31.6,0-54.8,8-69.7,23.9c-14.9,15.9-27.5,39.4-37.9,70.4c-9.8,32.4-28.3,48.6-55.5,48.6c-16.1,0-29.6-5.7-40.7-17c-11-11.3-16.6-23.6-16.6-36.8c0-27.3,8.8-54.9,26.3-82.9c17.5-28,43-51.2,76.6-69.5c33.6-18.4,72.7-27.5,117.5-27.5c41.6,0,78.3,7.7,110.2,23c31.9,15.4,56.5,36.2,73.8,62.6c17.4,26.4,26,55.1,26,86.1C716.5,375.2,711.6,396.6,701.7,415z"/></g>
</svg>