<svg xmlns="http://www.w3.org/2000/svg" viewBox="0 0 128 128"><path d="M64.171 102.749c-.366 0-.73-.096-1.05-.283l-3.348-1.98c-.5-.28-.257-.38-.091-.437.667-.232.802-.286 1.513-.688.075-.042.172-.027.249.019l2.57 1.527a.33.33 0 00.312 0l10.026-5.787a.313.313 0 00.154-.272V83.277a.323.323 0 00-.155-.277l-10.023-5.782a.32.32 0 00-.31 0L53.998 83a.327.327 0 00-.158.276v11.571c0 .112.062.216.158.268l2.746 1.588c1.491.744 2.404-.133 2.404-1.014V84.263c0-.16.13-.288.29-.288h1.273c.158 0 .29.128.29.288V95.69c0 1.988-1.083 3.129-2.97 3.129-.58 0-1.035 0-2.309-.627l-2.629-1.513a2.118 2.118 0 01-1.05-1.83V83.279c0-.752.4-1.453 1.05-1.827l10.027-5.795a2.202 2.202 0 012.106 0l10.027 5.795a2.116 2.116 0 011.052 1.827V94.85c0 .751-.403 1.45-1.052 1.829l-10.027 5.788c-.318.186-.68.282-1.054.282m3.1-7.973c-4.39 0-5.309-2.015-5.309-3.704 0-.159.13-.289.29-.289h1.297a.29.29 0 01.288.245c.194 1.32.78 1.986 3.433 1.986 2.111 0 3.01-.477 3.01-1.6 0-.646-.254-1.125-3.536-1.447-2.744-.272-4.44-.877-4.44-3.074 0-2.022 1.705-3.23 4.562-3.23 3.213 0 4.802 1.116 5.003 3.508a.296.296 0 01-.076.223.299.299 0 01-.212.092h-1.303a.288.288 0 01-.281-.226c-.314-1.39-1.072-1.833-3.132-1.833-2.306 0-2.573.804-2.573 1.405 0 .728.315.94 3.43 1.352 3.08.409 4.545.985 4.545 3.151.001 2.19-1.82 3.441-4.997 3.441m55.59-35.382c.396-.231.64-.653.64-1.112V55.31c0-.458-.243-.88-.64-1.11l-10.566-6.135a1.284 1.284 0 00-1.287-.003L100.375 54.2c-.397.23-.642.654-.642 1.112v12.274c0 .461.248.888.65 1.117l10.564 6.02c.39.223.867.224 1.26.007l6.39-3.552a.642.642 0 00.007-1.118l-10.697-6.14a.64.64 0 01-.324-.556v-3.848c0-.23.123-.44.321-.554l3.331-1.92a.638.638 0 01.641 0l3.331 1.92a.64.64 0 01.322.554v3.027a.64.64 0 00.966.556l6.365-3.704m-11.367-.576a.252.252 0 01.247 0l2.04 1.179a.248.248 0 01.122.213v2.356c0 .089-.046.17-.122.214l-2.04 1.177a.245.245 0 01-.247 0l-2.039-1.177a.245.245 0 01-.124-.214V60.21c0-.087.047-.17.124-.213l2.04-1.179M83.825 63.72c0 .113-.06.22-.16.277l-3.652 2.105a.317.317 0 01-.32 0l-3.651-2.105a.322.322 0 01-.16-.277v-4.217c0-.114.061-.221.16-.28l3.65-2.107c.1-.059.223-.059.323 0l3.652 2.108c.098.058.16.165.16.279v4.217zm.986-31.224a.644.644 0 00-.955.56v16.316c0 .16-.086.309-.223.39a.453.453 0 01-.45 0l-2.663-1.535a1.284 1.284 0 00-1.282 0l-10.635 6.137c-.398.23-.643.654-.643 1.113v12.278c0 .458.245.881.642 1.113l10.635 6.14c.396.23.886.23 1.284 0l10.637-6.14c.397-.232.642-.655.642-1.113V37.149c0-.465-.253-.895-.658-1.122l-6.33-3.531m-37.427 15.5a1.28 1.28 0 011.284 0l10.634 6.135c.397.23.642.655.642 1.113v12.282c0 .458-.245.883-.642 1.113l-10.633 6.14a1.289 1.289 0 01-1.285 0l-10.63-6.14a1.287 1.287 0 01-.642-1.113V55.243c0-.457.245-.882.642-1.112l10.63-6.136m-19.338 7.147a1.28 1.28 0 00-.642-1.116l-10.63-6.118a1.25 1.25 0 00-.587-.168h-.11a1.255 1.255 0 00-.586.168L4.861 54.026a1.29 1.29 0 00-.643 1.116l.023 16.473c0 .23.12.444.32.555.198.118.442.118.639 0l6.316-3.618c.4-.238.643-.656.643-1.115v-7.696c0-.46.243-.883.64-1.113l2.691-1.548c.2-.118.42-.173.642-.173.22 0 .445.055.64.173l2.689 1.548c.398.23.643.654.643 1.113v7.696c0 .459.246.88.643 1.115l6.317 3.618a.641.641 0 00.96-.555l.024-16.473" fill="#83CD29"/></svg>