<svg xmlns="http://www.w3.org/2000/svg" version="1.1" viewBox="0 0 128 128" id="angularjs"><defs id="defs286"><style id="style284">.cls-1{fill:#1c78c0}</style></defs><g id="plain-wordmark"><path id="path290" d="M106.618 74.064L66.212 94.692v-16.08l25.192-12.513 15.247 7.936zm2.766-2.259V28.648l-14.786 7.698v27.732l14.885 7.727zm-87.135 2.26l40.406 20.627v-16.08L37.463 66.128zm-2.766-2.26V28.648l14.786 7.698v27.732zm1.745-45.891L62.688 4.75v15.515L36.113 33.404h-.198zm86.444 0L66.212 4.692v15.515l26.542 13.167h.197z" class="cls-1" stroke-width="3.129"/><path id="path292" d="M62.655 74.956l-24.83-12.335V38.19l24.863 12.96zm3.557 0l24.862-12.335V38.19L66.212 51.15zm-26.707-39.56l24.928-12.454 24.929 12.364-24.929 12.989z" class="cls-1" stroke-width="3.129"/><path id="path294" d="M25.111 118.744h3.912l3.982-13.279H29.2l-2.356 9.426-2.521-9.426h-3.3l-2.545 9.426-2.356-9.426h-3.782l3.959 13.28h3.911l2.463-8.508zm8.106-6.563a6.622 6.622 0 006.987 6.929 6.304 6.304 0 005.585-2.923l-2.356-1.755a3.876 3.876 0 01-3.229 1.626 3.228 3.228 0 01-3.452-3.052h9.355v-.766c0-4.336-2.356-7.07-6.445-7.07-3.782 0-6.504 2.994-6.504 7.011zm3.688-1.449A2.816 2.816 0 0139.71 108a2.71 2.71 0 012.84 2.686zm10.605 8.048h3.299v-1.414a5.173 5.173 0 003.935 1.696c3.806 0 6.504-2.863 6.504-6.951 0-4.089-2.51-7-6.315-7a4.996 4.996 0 00-3.936 1.721V100.4h-3.535v18.345zm3.381-6.599c0-2.486 1.473-3.911 3.405-3.911 1.933 0 3.405 1.555 3.405 3.911 0 2.357-1.425 3.83-3.405 3.83a3.535 3.535 0 01-3.405-3.83zm11.7 11.347h3.535v-6.162a5.066 5.066 0 003.935 1.696c3.806 0 6.304-2.863 6.304-6.975s-2.722-6.975-6.528-6.975a5.09 5.09 0 00-3.935 1.72v-1.378h-3.3v18.039zm3.405-11.429a3.535 3.535 0 013.405-3.83c1.98 0 3.406 1.473 3.406 3.83 0 2.356-1.367 3.912-3.406 3.912-2.038 0-3.405-1.473-3.405-3.947zm10.97 2.569c0 2.792 2.286 4.442 4.972 4.442a4.147 4.147 0 003.228-1.179l.224.86h3.1v-8.46c0-2.969-1.273-5.207-5.539-5.207a9.91 9.91 0 00-5.231 1.579l1.32 2.356a7.835 7.835 0 013.534-.943c1.556 0 2.357.79 2.357 1.956v.931a5.385 5.385 0 00-2.804-.766c-3.1 0-5.161 1.768-5.161 4.383zm3.535-.107c0-1.095.942-1.85 2.285-1.85 1.344 0 2.357.684 2.357 1.85 0 1.167-.966 1.827-2.286 1.827s-2.356-.73-2.356-1.827zm16.495 1.45a3.876 3.876 0 01-.118-7.741 4.513 4.513 0 013.099 1.272l.99-2.946a6.763 6.763 0 00-4.183-1.484 6.846 6.846 0 00-7.07 7.01 6.751 6.751 0 007.07 6.929 6.68 6.68 0 004.195-1.403l-.943-2.863a4.854 4.854 0 01-3.005 1.179zm5.255 2.769h3.535v-6.893l4.442 6.857h4.112l-5.031-7.27 4.713-6.02h-3.936l-4.324 5.55v-10.605h-3.534v18.345z" class="cls-1" stroke-width="1.178"/></g></svg>